<?xml version="1.0" encoding="UTF-8"?>
<!-- Generated by Pixelmator Pro 2.4.3 -->
<svg width="3556" height="3556" viewBox="0 0 3556 3556" xmlns="http://www.w3.org/2000/svg" xmlns:xlink="http://www.w3.org/1999/xlink">
    
<style>
#CircularText {transform-origin: 1778px 1778px; animation:spin 12s linear infinite; transform-box: fill-box;}
@keyframes spin{from{transform:rotate(0deg)}to{transform:rotate(360deg)}}
</style>

    <g id="Group">
        <text id="VEASTA" xml:space="preserve" x="1180.579777" y="3289" font-family="Sinhala MN" font-size="329.7399" fill="#000000">VEASTA</text>
        <path id="Ellipse" fill="#000000" fill-rule="evenodd" stroke="none" d="M 861 1563.5 C 861 1548.864502 849.135559 1537 834.5 1537 C 819.864441 1537 808 1548.864502 808 1563.5 C 808 1578.135498 819.864441 1590 834.5 1590 C 849.135559 1590 861 1578.135498 861 1563.5 Z"/>
        <path id="Ellipse-copy-4" fill="#000000" fill-rule="evenodd" stroke="none" d="M 2771 1563.5 C 2771 1548.864502 2759.135498 1537 2744.5 1537 C 2729.864502 1537 2718 1548.864502 2718 1563.5 C 2718 1578.135498 2729.864502 1590 2744.5 1590 C 2759.135498 1590 2771 1578.135498 2771 1563.5 Z"/>
        <path id="path1" fill="#000000" fill-rule="evenodd" stroke="none" d="M 1789.5 2492 C 1774.864502 2492 1763 2503.864502 1763 2518.5 C 1763 2533.135498 1774.864502 2545 1789.5 2545 C 1804.135498 2545 1816 2533.135498 1816 2518.5 C 1816 2503.864502 1804.135498 2492 1789.5 2492 Z"/>
        <path id="path2" fill="#000000" fill-rule="evenodd" stroke="none" d="M 1789.5 582 C 1774.864502 582 1763 593.864502 1763 608.5 C 1763 623.135498 1774.864502 635 1789.5 635 C 1804.135498 635 1816 623.135498 1816 608.5 C 1816 593.864502 1804.135498 582 1789.5 582 Z"/>
        <path id="path3" fill="#000000" fill-rule="evenodd" stroke="none" d="M 1132.951294 2220.048828 C 1122.602417 2209.699707 1105.823608 2209.699707 1095.474731 2220.048828 C 1085.125854 2230.397461 1085.125854 2247.17627 1095.474731 2257.525391 C 1105.823608 2267.874023 1122.602417 2267.874023 1132.951294 2257.525391 C 1143.300293 2247.17627 1143.300293 2230.397461 1132.951294 2220.048828 Z"/>
        <path id="path4" fill="#000000" fill-rule="evenodd" stroke="none" d="M 2483.525391 869.474609 C 2473.176514 859.125732 2456.397461 859.125732 2446.048584 869.474609 C 2435.699707 879.823486 2435.699707 896.602539 2446.048584 906.951416 C 2456.397461 917.300293 2473.176514 917.300293 2483.525391 906.951416 C 2493.874268 896.602539 2493.874268 879.823486 2483.525391 869.474609 Z"/>
        <path id="path5" fill="#000000" fill-rule="evenodd" stroke="none" d="M 2446.048584 2220.048828 C 2435.699707 2230.397461 2435.699707 2247.17627 2446.048584 2257.525391 C 2456.397461 2267.874023 2473.176514 2267.874023 2483.525391 2257.525391 C 2493.874268 2247.17627 2493.874268 2230.397461 2483.525391 2220.048828 C 2473.176514 2209.699707 2456.397461 2209.699707 2446.048584 2220.048828 Z"/>
        <path id="path6" fill="#000000" fill-rule="evenodd" stroke="none" d="M 1095.474731 869.474609 C 1085.125854 879.823486 1085.125854 896.602539 1095.474731 906.951416 C 1105.823608 917.300293 1122.602417 917.300293 1132.951294 906.951416 C 1143.300293 896.602539 1143.300293 879.823486 1132.951294 869.474609 C 1122.602417 859.125732 1105.823608 859.125732 1095.474731 869.474609 Z"/>
        <path id="path7" fill="#000000" fill-rule="evenodd" stroke="none" d="M 931.677856 1918.821533 C 926.077087 1905.300049 910.575439 1898.879028 897.053955 1904.479858 C 883.532471 1910.080688 877.11145 1925.582275 882.712219 1939.10376 C 888.313049 1952.625244 903.814697 1959.046265 917.336182 1953.445435 C 930.857666 1947.844727 937.278625 1932.343018 931.677856 1918.821533 Z"/>
        <path id="path8" fill="#000000" fill-rule="evenodd" stroke="none" d="M 2696.287842 1187.89624 C 2690.687012 1174.374756 2675.185303 1167.953613 2661.663818 1173.554443 C 2648.142334 1179.155273 2641.721436 1194.656982 2647.322266 1208.178467 C 2652.922852 1221.699951 2668.424561 1228.12085 2681.946045 1222.52002 C 2695.467529 1216.919434 2701.888428 1201.417725 2696.287842 1187.89624 Z"/>
        <path id="path9" fill="#000000" fill-rule="evenodd" stroke="none" d="M 2144.821533 2421.322266 C 2131.300049 2426.922852 2124.87915 2442.424561 2130.47998 2455.946045 C 2136.080566 2469.467529 2151.582275 2475.888672 2165.10376 2470.287598 C 2178.625244 2464.687012 2185.046387 2449.185303 2179.445557 2435.663818 C 2173.844727 2422.142334 2158.343018 2415.721191 2144.821533 2421.322266 Z"/>
        <path id="path10" fill="#000000" fill-rule="evenodd" stroke="none" d="M 1413.89624 656.712158 C 1400.374756 662.312988 1393.953735 677.814697 1399.554565 691.336182 C 1405.155273 704.857666 1420.656982 711.278564 1434.178467 705.677734 C 1447.699951 700.077148 1454.12085 684.575439 1448.520142 671.053955 C 1442.919312 657.532471 1427.417725 651.111572 1413.89624 656.712158 Z"/>
        <path id="path11" fill="#000000" fill-rule="evenodd" stroke="none" d="M 1434.178467 2421.322266 C 1420.656982 2415.721191 1405.155273 2422.142334 1399.554565 2435.663818 C 1393.953735 2449.185303 1400.374756 2464.687012 1413.89624 2470.287598 C 1427.417725 2475.888672 1442.919312 2469.467529 1448.520142 2455.946045 C 1454.120972 2442.424561 1447.699951 2426.922852 1434.178467 2421.322266 Z"/>
        <path id="path12" fill="#000000" fill-rule="evenodd" stroke="none" d="M 2165.10376 656.712158 C 2151.582275 651.111572 2136.080566 657.532471 2130.47998 671.053955 C 2124.87915 684.575439 2131.300049 700.077148 2144.821533 705.677734 C 2158.343018 711.278564 2173.844727 704.857666 2179.445557 691.336182 C 2185.046387 677.814697 2178.625244 662.312988 2165.10376 656.712158 Z"/>
        <path id="path13" fill="#000000" fill-rule="evenodd" stroke="none" d="M 2647.322266 1918.821533 C 2641.721436 1932.343018 2648.142334 1947.844727 2661.663818 1953.445435 C 2675.185303 1959.046265 2690.687012 1952.625244 2696.287842 1939.10376 C 2701.888428 1925.582275 2695.467529 1910.080688 2681.946045 1904.479858 C 2668.424561 1898.879028 2652.922852 1905.300049 2647.322266 1918.821533 Z"/>
        <path id="path14" fill="#000000" fill-rule="evenodd" stroke="none" d="M 882.712219 1187.89624 C 877.11145 1201.417725 883.532471 1216.919434 897.053955 1222.52002 C 910.575439 1228.12085 926.077087 1221.699951 931.677856 1208.178467 C 937.278625 1194.656982 930.857666 1179.155273 917.336182 1173.554443 C 903.814697 1167.953613 888.313049 1174.374756 882.712219 1187.89624 Z"/>
        <path id="path15" fill="none" stroke="#000000" stroke-width="21" stroke-linecap="round" stroke-linejoin="round" d="M 3034 1562 C 3034 871.644043 2474.355957 312 1784 312 C 1093.644043 312 534 871.644043 534 1562 C 534 2252.355957 1093.644043 2812 1784 2812 C 2474.355957 2812 3034 2252.355957 3034 1562 Z"/>
        <path id="Ellipse-copy" fill="none" stroke="#000000" stroke-width="21" stroke-linecap="round" stroke-linejoin="round" d="M 2846 1562.5 C 2846 975.69751 2370.30249 500 1783.5 500 C 1196.69751 500 721 975.69751 721 1562.5 C 721 2149.30249 1196.69751 2625 1783.5 2625 C 2370.30249 2625 2846 2149.30249 2846 1562.5 Z"/>
        <path id="Ellipse-copy-2" fill="none" stroke="#000000" stroke-width="42" stroke-linecap="round" stroke-linejoin="round" d="M 3084 1562 C 3084 844.029785 2501.970215 262 1784 262 C 1066.029785 262 484 844.029785 484 1562 C 484 2279.970215 1066.029785 2862 1784 2862 C 2501.970215 2862 3084 2279.970215 3084 1562 Z"/>
        <path id="Ellipse-copy-3" fill="none" stroke="#000000" stroke-width="42" stroke-linecap="round" stroke-linejoin="round" d="M 2796 1562.5 C 2796 1003.311523 2342.688477 550 1783.5 550 C 1224.311646 550 771 1003.311523 771 1562.5 C 771 2121.688477 1224.311646 2575 1783.5 2575 C 2342.688477 2575 2796 2121.688477 2796 1562.5 Z"/>
        <path id="Path" fill="#000000" fill-rule="evenodd" stroke="none" d="M 1629 2254 C 1629 2254 1620.4021 2296.621094 1598 2323 C 1587.554443 2335.299805 1577 2321 1577 2321 C 1577 2321 1575.246094 2344.801758 1581 2355 C 1586.718262 2365.13501 1586.701904 2345.069824 1595 2348 C 1613.448486 2354.51416 1616 2396 1616 2396 L 1623 2471 C 1623 2471 1656.028809 2476.893799 1691 2481 C 1731.265869 2485.728027 1772 2483 1772 2483 L 1772 2414 C 1772 2414 1675.554688 2411.141113 1648 2401 C 1627.396484 2393.417236 1656.761963 2365.467529 1671 2345 C 1689.335449 2318.642578 1673 2318 1673 2318 C 1673 2318 1647.571533 2332.975586 1643 2326 C 1626.79248 2301.268555 1629 2254 1629 2254 Z"/>
        <path id="path16" fill="#000000" fill-rule="evenodd" stroke="none" d="M 1638 973 C 1639.759766 978.501221 1683.220215 998.440674 1703 1015 C 1728.859863 1036.649658 1772 1089 1772 1089 C 1772 1089 1729.970215 1019.377197 1703 996 C 1686.103271 981.354248 1670.022949 973.831299 1651 971 C 1646.66333 970.354492 1636.664307 968.823975 1638 973 Z"/>
        <path id="path17" fill="#000000" fill-rule="evenodd" stroke="none" d="M 1454 1925 C 1454 1925 1447.823242 1977.696289 1519 2072 C 1539.748779 2099.490479 1569.779541 2141.764648 1602 2159 C 1629.385498 2173.64917 1658.331543 2158.364746 1703 2180 C 1721.321777 2188.874268 1750 2219 1750 2219 C 1750 2219 1720.30542 2157.017578 1687 2139 C 1642.37793 2114.860107 1649.790527 2144.999268 1576 2094 C 1492.847656 2036.530518 1454 1925 1454 1925 Z"/>
        <path id="path18" fill="#000000" fill-rule="evenodd" stroke="none" d="M 1288 1844 C 1288 1844 1311.905884 1803.629639 1322 1782 C 1337.359131 1749.088379 1354.72876 1714.431641 1357 1683 C 1362.2146 1610.831787 1343.949707 1579.396484 1340 1563 C 1336.367676 1547.921387 1333 1523 1333 1523 C 1333 1523 1338.078857 1546.238281 1339 1647 C 1339.727051 1726.529297 1316.679199 1755.640625 1313 1760 C 1293.499634 1783.10498 1313 1577 1313 1577 C 1313 1577 1286.812744 1653.646973 1284 1703 C 1281.324585 1749.942871 1288 1844 1288 1844 Z"/>
        <path id="path19" fill="#000000" fill-rule="evenodd" stroke="none" d="M 1368 1271 C 1368 1271 1383.161865 1263.906982 1391 1261 C 1404.740723 1255.903809 1433 1248 1433 1248 C 1433 1248 1378.972168 1274.202393 1379 1284 C 1379.018555 1290.494629 1396.317139 1334.055664 1400 1334 C 1402.571777 1333.961182 1411.724609 1325.067139 1417 1322 C 1426.057861 1316.733643 1443 1309 1443 1309 C 1443 1309 1415.948486 1332.176025 1413 1347 C 1410.593994 1359.096436 1425 1378 1425 1378 C 1425 1378 1404.459473 1368.59668 1384 1324 C 1370.821289 1295.273682 1368 1271 1368 1271 Z"/>
        <path id="path20" fill="#000000" fill-rule="evenodd" stroke="none" d="M 1504 1107 C 1504 1107 1489.804199 1100.716797 1483 1097 C 1473.015137 1091.545898 1454 1079 1454 1079 C 1454 1079 1469.214111 1096.235596 1478 1104 C 1483.547363 1108.902344 1497 1117 1497 1117 L 1504 1107 Z"/>
        <path id="path21" fill="#000000" fill-rule="evenodd" stroke="none" d="M 1385 1128 C 1385 1128 1409.838379 1132.085938 1422 1136 C 1435.555176 1140.362549 1462 1153 1462 1153 C 1462 1153 1433.974121 1143.081299 1419 1141 C 1408.429688 1139.530762 1394.858398 1134.47876 1386 1141 C 1381.192627 1144.539063 1379.0896 1151.249756 1377 1159 C 1373.59082 1171.645264 1367.372559 1186.370361 1372 1186 C 1376.893311 1185.608398 1440 1183 1440 1183 C 1440 1183 1394.806641 1189.482666 1380 1198 C 1369.36792 1204.115967 1364 1223 1364 1223 C 1364 1223 1361.755615 1206.567139 1372 1162 C 1374.938965 1149.214355 1385 1128 1385 1128 Z"/>
        <path id="path22" fill="#000000" fill-rule="evenodd" stroke="none" d="M 1703 1493 C 1703 1493 1691.54834 1487.456299 1676 1482 C 1658.467041 1475.846924 1635.866699 1469.55835 1621.289795 1466.795898 C 1594.684326 1461.753906 1542 1444 1542 1444 C 1542 1444 1557.534424 1444.776367 1565 1443 C 1583.096436 1438.694336 1588 1417 1588 1417 C 1588 1417 1579.766602 1444.925049 1584 1449 C 1585.029785 1449.991211 1585.346436 1449.489746 1587.636719 1450.310303 C 1594.888916 1452.908447 1611.605469 1458.82251 1625 1463 C 1631.726807 1465.0979 1635.042969 1466.319092 1639 1465 C 1643.30127 1463.566162 1637 1427 1637 1427 C 1637 1427 1642.533691 1457.923828 1668 1472 C 1679.362793 1478.280518 1703 1493 1703 1493 Z"/>
        <path id="path23" fill="#000000" fill-rule="evenodd" stroke="none" d="M 1944.36731 2254 C 1944.36731 2254 1952.96521 2296.621094 1975.36731 2323 C 1985.812866 2335.299805 1996.36731 2321 1996.36731 2321 C 1996.36731 2321 1998.121216 2344.801758 1992.36731 2355 C 1986.649048 2365.13501 1986.665405 2345.069824 1978.36731 2348 C 1959.918823 2354.51416 1957.36731 2396 1957.36731 2396 L 1950.36731 2471 C 1950.36731 2471 1917.338501 2476.893799 1882.36731 2481 C 1842.10144 2485.728027 1801.36731 2483 1801.36731 2483 L 1801.36731 2414 C 1801.36731 2414 1897.812622 2411.141113 1925.36731 2401 C 1945.970825 2393.417236 1916.605347 2365.467529 1902.36731 2345 C 1884.03186 2318.642578 1900.36731 2318 1900.36731 2318 C 1900.36731 2318 1925.795776 2332.975586 1930.36731 2326 C 1946.574829 2301.268555 1944.36731 2254 1944.36731 2254 Z"/>
        <path id="path24" fill="#000000" fill-rule="evenodd" stroke="none" d="M 1935.36731 973 C 1933.607544 978.501221 1890.147095 998.440674 1870.36731 1015 C 1844.507446 1036.649658 1801.36731 1089 1801.36731 1089 C 1801.36731 1089 1843.397095 1019.377197 1870.36731 996 C 1887.264038 981.354248 1903.34436 973.831299 1922.36731 971 C 1926.703979 970.354492 1936.703003 968.823975 1935.36731 973 Z"/>
        <path id="path25" fill="#000000" fill-rule="evenodd" stroke="none" d="M 2119.367432 1925 C 2119.367432 1925 2125.544189 1977.696289 2054.367432 2072 C 2033.61853 2099.490479 2003.587769 2141.764648 1971.36731 2159 C 1943.981812 2173.64917 1915.035767 2158.364746 1870.36731 2180 C 1852.045532 2188.874268 1823.36731 2219 1823.36731 2219 C 1823.36731 2219 1853.06189 2157.017578 1886.36731 2139 C 1930.98938 2114.860107 1923.576782 2144.999268 1997.36731 2094 C 2080.519775 2036.530518 2119.367432 1925 2119.367432 1925 Z"/>
        <path id="path26" fill="#000000" fill-rule="evenodd" stroke="none" d="M 2285.367432 1844 C 2285.367432 1844 2261.461426 1803.629639 2251.367432 1782 C 2236.008301 1749.088379 2218.638672 1714.431641 2216.367432 1683 C 2211.152832 1610.831787 2229.417725 1579.396484 2233.367432 1563 C 2236.999756 1547.921387 2240.367432 1523 2240.367432 1523 C 2240.367432 1523 2235.288574 1546.238281 2234.367432 1647 C 2233.640381 1726.529297 2256.688232 1755.640625 2260.367432 1760 C 2279.867676 1783.10498 2260.367432 1577 2260.367432 1577 C 2260.367432 1577 2286.554688 1653.646973 2289.367432 1703 C 2292.042725 1749.942871 2285.367432 1844 2285.367432 1844 Z"/>
        <path id="path27" fill="#000000" fill-rule="evenodd" stroke="none" d="M 2205.367432 1271 C 2205.367432 1271 2190.205566 1263.906982 2182.367432 1261 C 2168.626709 1255.903809 2140.367432 1248 2140.367432 1248 C 2140.367432 1248 2194.395264 1274.202393 2194.367432 1284 C 2194.348877 1290.494629 2177.050293 1334.055664 2173.367432 1334 C 2170.795654 1333.961182 2161.642822 1325.067139 2156.367432 1322 C 2147.30957 1316.733643 2130.367432 1309 2130.367432 1309 C 2130.367432 1309 2157.418945 1332.176025 2160.367432 1347 C 2162.773438 1359.096436 2148.367432 1378 2148.367432 1378 C 2148.367432 1378 2168.907959 1368.59668 2189.367432 1324 C 2202.546143 1295.273682 2205.367432 1271 2205.367432 1271 Z"/>
        <path id="path28" fill="#000000" fill-rule="evenodd" stroke="none" d="M 2069.367432 1107 C 2069.367432 1107 2083.563232 1100.716797 2090.367432 1097 C 2100.352295 1091.545898 2119.367432 1079 2119.367432 1079 C 2119.367432 1079 2104.15332 1096.235596 2095.367432 1104 C 2089.820068 1108.902344 2076.367432 1117 2076.367432 1117 L 2069.367432 1107 Z"/>
        <path id="path29" fill="#000000" fill-rule="evenodd" stroke="none" d="M 2188.367432 1128 C 2188.367432 1128 2163.529053 1132.085938 2151.367432 1136 C 2137.812256 1140.362549 2111.367432 1153 2111.367432 1153 C 2111.367432 1153 2139.393311 1143.081299 2154.367432 1141 C 2164.937744 1139.530762 2178.509033 1134.47876 2187.367432 1141 C 2192.174805 1144.539063 2194.277832 1151.249756 2196.367432 1159 C 2199.776611 1171.645264 2205.994873 1186.370361 2201.367432 1186 C 2196.474121 1185.608398 2133.367432 1183 2133.367432 1183 C 2133.367432 1183 2178.560791 1189.482666 2193.367432 1198 C 2203.999512 1204.115967 2209.367432 1223 2209.367432 1223 C 2209.367432 1223 2211.611816 1206.567139 2201.367432 1162 C 2198.428467 1149.214355 2188.367432 1128 2188.367432 1128 Z"/>
        <path id="path30" fill="#000000" fill-rule="evenodd" stroke="none" d="M 1870.36731 1493 C 1870.36731 1493 1881.81897 1487.456299 1897.36731 1482 C 1914.900269 1475.846924 1937.50061 1469.55835 1952.077515 1466.795898 C 1978.682983 1461.753906 2031.36731 1444 2031.36731 1444 C 2031.36731 1444 2015.832886 1444.776367 2008.36731 1443 C 1990.270874 1438.694336 1985.36731 1417 1985.36731 1417 C 1985.36731 1417 1993.600708 1444.925049 1989.36731 1449 C 1988.337524 1449.991211 1988.020874 1449.489746 1985.730591 1450.310303 C 1978.478394 1452.908447 1961.761841 1458.82251 1948.36731 1463 C 1941.640503 1465.0979 1938.324341 1466.319092 1934.36731 1465 C 1930.06604 1463.566162 1936.36731 1427 1936.36731 1427 C 1936.36731 1427 1930.833618 1457.923828 1905.36731 1472 C 1894.004517 1478.280518 1870.36731 1493 1870.36731 1493 Z"/>
        <path id="Path-copy-9" fill="#000000" fill-rule="evenodd" stroke="none" d="M 2334.208252 824 L 2307.208252 893 C 2307.208252 893 2722.626465 1194.289795 2615.208252 1747 C 2540.689209 2130.430664 2227.587646 2300.10498 2111.208252 2352 C 2083.909424 2364.172852 2058.881348 2395.940918 2049.208252 2409 C 2034.561157 2428.774414 2031.20813 2455 2031.20813 2455 C 2031.20813 2455 2570.948486 2302.879395 2683.208252 1762 C 2807.463135 1163.325684 2334.208252 824 2334.208252 824 Z"/>
        <path id="path31" fill="#000000" fill-rule="evenodd" stroke="none" d="M 1234 824 L 1261 893 C 1261 893 845.581787 1194.289795 953 1747 C 1027.519043 2130.430664 1340.620605 2300.10498 1457 2352 C 1484.298828 2364.172852 1509.326904 2395.940918 1519 2409 C 1533.646973 2428.774414 1537 2455 1537 2455 C 1537 2455 997.259644 2302.879395 885 1762 C 760.744995 1163.325684 1234 824 1234 824 Z"/>
        <path id="path32" fill="#000000" fill-rule="evenodd" stroke="none" d="M 1343 830 L 1274 796 C 1274 796 1486.548584 635.933594 1789 640 C 2130.22876 644.587646 2300 801 2300 801 L 2230 830 C 2230 830 2057.918457 710.111328 1786 709 C 1540.789795 707.997803 1343 830 1343 830 Z"/>
        <path id="path33" fill="#000000" fill-rule="evenodd" stroke="none" d="M 1501 885 C 1501 885 1642.433105 817.936279 1786 823 C 1941.235107 828.475342 2060 880 2060 880 L 2097 865 C 2097 865 1980.466553 800.789307 1784 796 C 1607.570068 791.699219 1464 873 1464 873 L 1501 885 Z"/>
        <path id="Path-copy-8" fill="#000000" fill-rule="evenodd" stroke="none" d="M 1429.285156 853 C 1429.285156 853 1608.525635 768.009033 1790.470215 774.426514 C 1987.202148 781.365479 2137.714844 846.66333 2137.714844 846.66333 L 2179 832 C 2179 832 2030.288818 753.134033 1791 748 C 1562.207275 743.091064 1390 840 1390 840 L 1429.285156 853 Z"/>
        <path id="path34" fill="#000000" fill-rule="evenodd" stroke="none" d="M 1777 1740.776123 L 1777 1775.427734 C 1777 1775.427734 1737.203857 1795.247314 1718.935547 1837.238281 C 1703.012207 1873.839111 1777 1894.209473 1777 1894.209473 L 1777 1944.759277 C 1777 1944.759277 1757.968262 1959.944336 1759.206055 1983.336182 C 1760.450684 2006.86084 1777 2008.212891 1777 2008.212891 L 1777 2023.091309 C 1777 2023.091309 1763.596191 2014.442139 1758.269531 2008.622314 C 1752.013428 2001.787354 1752.609375 1978.789063 1743.285156 1985.209229 C 1733.968262 1991.624512 1717.168213 1990.494385 1713.316162 2001.130127 C 1707.690186 2016.664551 1720.441895 2035.26001 1732.046875 2047.02002 C 1743.477783 2058.603516 1777 2066.067383 1777 2066.067383 L 1777 2118.195801 C 1777 2118.195801 1774.412109 2105.47168 1765.761719 2094.782715 C 1760.812256 2088.666748 1747.178955 2084.781006 1738.602539 2078.861816 C 1725.737793 2069.983154 1718.898438 2057.359131 1714.252686 2067.623535 C 1711.581787 2073.525146 1710.212158 2079.238525 1705.823975 2084.480957 C 1699.764404 2091.720459 1688.030029 2097.592285 1688.030029 2097.592285 C 1688.030029 2097.592285 1703.774414 2068.764404 1703.014404 2051.702637 C 1702.439209 2038.785889 1696.746094 2024.066162 1694.585693 2017.051025 C 1690.130127 2002.583252 1687.835693 2019.60791 1678.664795 2028.289551 C 1664.320557 2041.868408 1644.185547 2047.19751 1629.965576 2049.82959 C 1611.784668 2053.19458 1573.475586 2044.087402 1526.01123 1995.510986 C 1508.942383 1978.042236 1500.149658 1953.778076 1483.867676 1935.573486 C 1477.973389 1928.983398 1466 1918 1466 1918 C 1466 1918 1474.175781 1920.765625 1485 1918 C 1493.856201 1915.737305 1503.249023 1908.288574 1507 1905 C 1524.258545 1889.868408 1505.148926 1922.301514 1509 1933 C 1515.557129 1951.216064 1533.556885 1981.102783 1549 1994 C 1570.598633 2012.038086 1589.70874 2030.307129 1625.282959 2030.162598 C 1639.000977 2030.106689 1658.982178 2017.392822 1670.236084 2005.812744 C 1677.73877 1998.092773 1685.529541 1991.55542 1679.601318 1989.891846 C 1672.966553 1988.030029 1657.327393 1980.254395 1647.759521 1971.161377 C 1636.065674 1960.047852 1630.654541 1948.583496 1627.156006 1963.669189 C 1622.612549 1983.26123 1597.844238 1993.628662 1582.202637 1996.44751 C 1570.379639 1998.578369 1560.662598 1982.399658 1560.662598 1982.399658 C 1560.662598 1982.399658 1595.260742 1975.50293 1610.298584 1948.684814 C 1620.027344 1931.334717 1614.981201 1903.731689 1614.981201 1903.731689 C 1614.981201 1903.731689 1621.31665 1902.123535 1624.346436 1900.922119 C 1626.941895 1899.892578 1631.838623 1897.176025 1631.838623 1897.176025 C 1631.838623 1897.176025 1642.008545 1936.251221 1655.251709 1948.684814 C 1673.196533 1965.532715 1695.763184 1978.318848 1720.808594 1968.351807 C 1739.874756 1960.764404 1761.96582 1943.120117 1762.015625 1915.906494 C 1762.029541 1908.289307 1737.022949 1907.230225 1726.427734 1898.112549 C 1715.792725 1888.960693 1705.564697 1872.799072 1701.141357 1863.460938 C 1698.862305 1858.649414 1692.553223 1860.278809 1686.156982 1861.587891 C 1677.323975 1863.395752 1667.792725 1866.648926 1663.68042 1870.016602 C 1645.965576 1884.524658 1628.901123 1895.640137 1605.615967 1900.922119 C 1594.351563 1903.477051 1576.106201 1901.217041 1568.154785 1901.858643 C 1562.80835 1902.290039 1552.76416 1915.465332 1546.614746 1919.652588 C 1538.78833 1924.981689 1527.884277 1924.335205 1527.884277 1924.335205 C 1527.884277 1924.335205 1547.682617 1910.654541 1546.614746 1901.858643 C 1544.299072 1882.784668 1521.811279 1869.041504 1519.455566 1856.905273 C 1517.175293 1845.158447 1510.468018 1866.513916 1498.852051 1878.445313 C 1485.21582 1892.451904 1483.194824 1894.717529 1469.819824 1898.112549 C 1460.318604 1900.52417 1453.233643 1902.581055 1437.04126 1899.049072 C 1435.398926 1898.690674 1433.895996 1897.336182 1438.914307 1894.366455 C 1456.707031 1883.83667 1501.529541 1859.112305 1481.994629 1853.15918 C 1459.825195 1846.40332 1449.470703 1838.790771 1435.168213 1826.936523 C 1431.033203 1823.509277 1429.214355 1818.22998 1433.295166 1816.634766 C 1436.066895 1815.55127 1440.00708 1816.240479 1440.00708 1816.240479 C 1440.00708 1816.240479 1444.823975 1817.93457 1447.343018 1818.507813 C 1452.928223 1819.778564 1458.08374 1819.251709 1458.08374 1819.251709 C 1458.08374 1819.251709 1465.941162 1821.07959 1468.883301 1823.19043 C 1484.123535 1834.125 1492.12207 1832.645996 1504.471191 1833.492188 C 1517.425781 1834.380127 1521.202393 1792.664307 1526.01123 1804.459961 C 1534.276611 1824.733154 1529.558105 1841.058594 1544.741699 1857.841797 C 1555.158691 1869.356445 1570.496826 1884.719971 1592.504639 1883.12793 C 1608.912354 1881.941162 1660.747559 1857.749023 1644.949951 1853.15918 C 1624.722412 1847.282471 1617.73291 1836.071777 1605.615967 1820.380859 C 1595.101074 1806.764648 1587.148926 1783.717529 1585.012207 1772.618164 C 1583.115723 1762.765625 1577.501709 1771.703125 1551.297363 1766.0625 C 1537.997559 1763.199463 1525.986328 1753.55249 1525.074707 1758.570068 C 1521.75708 1776.834717 1525.492676 1791.179443 1489.486816 1804.459961 C 1471.913574 1810.94165 1446.539551 1817.704346 1433.295166 1804.459961 C 1430.866943 1802.031738 1430.056396 1795.298828 1433.295166 1794.158203 C 1447.119141 1789.290039 1461.050781 1799.800781 1486.677246 1781.983398 C 1504.478271 1769.606689 1508.906982 1764.758301 1509.153809 1751.077881 C 1509.305664 1742.655273 1499.180176 1728.992188 1491.359863 1716.426514 C 1487.822754 1710.743164 1488.352295 1704.628662 1486.677246 1699.569092 C 1484.933838 1694.302979 1476.375488 1695.822998 1476.375488 1695.822998 C 1476.375488 1695.822998 1483.697998 1690.552979 1487.61377 1688.330811 C 1493.928711 1684.746826 1507.280762 1678.965576 1507.280762 1678.965576 C 1507.280762 1678.965576 1504.798828 1684.95166 1506.344238 1690.203857 C 1511.237793 1706.835449 1527.875977 1741.623535 1556.916504 1742.64917 C 1617.963623 1744.80542 1631.838623 1708.934326 1631.838623 1708.934326 C 1631.838623 1708.934326 1634.09668 1723.356445 1635.584717 1728.601318 C 1636.931641 1733.349854 1639.330811 1741.712646 1639.330811 1741.712646 C 1639.330811 1741.712646 1637.923828 1739.66748 1634.648193 1741.712646 C 1631.239014 1743.841553 1626.793457 1750.11792 1621.536865 1752.950928 C 1611.786133 1758.206299 1600.725586 1761.701172 1599.060303 1765.125977 C 1594.55249 1774.395996 1602.421875 1795.711182 1626.219482 1820.380859 C 1640.818115 1835.514404 1657.722412 1846.71582 1686.156982 1840.047852 C 1700.557617 1836.671143 1718.417236 1817.180664 1724.554688 1804.459961 C 1733.356201 1786.216797 1701.938721 1807.681641 1661.807373 1769.808594 C 1643.204346 1752.252197 1639.211182 1736.951904 1634.648193 1697.696045 C 1632.247559 1677.043213 1607.760742 1678.870605 1587.822021 1644.314209 C 1582.40625 1634.927979 1576.081055 1617.303711 1566.281738 1619.964355 C 1557.766602 1622.276611 1554.363525 1645.619629 1506.344238 1672.409912 C 1494.017334 1679.287109 1480.277832 1684.880371 1469.45752 1693.210205 C 1456.773438 1702.974854 1446.406494 1719.236084 1446.406494 1719.236084 C 1446.406494 1719.236084 1448.394775 1686.494141 1460.45459 1678.965576 C 1484.958984 1663.668213 1529.643066 1645.693359 1532.566895 1625.583496 C 1534.130127 1614.831299 1501.104004 1615.472656 1488.550293 1584.376465 C 1482.229736 1568.720703 1485.740723 1533.804199 1485.740723 1533.804199 C 1485.740723 1533.804199 1496.609863 1577.444336 1517.58252 1589.995605 C 1526.422119 1595.285889 1551.19458 1610.008057 1551.297363 1598.424316 C 1551.431152 1583.362793 1551.297363 1543.169434 1551.297363 1543.169434 C 1551.297363 1543.169434 1567.814453 1599.993408 1589.695068 1604.043457 C 1618.136475 1609.308105 1637.968506 1575.304688 1660.87085 1559.090332 C 1670.353027 1552.377197 1657.124756 1611.535645 1657.124756 1611.535645 C 1657.124756 1611.535645 1645.453857 1579.123779 1642.140381 1590.932129 C 1637.332275 1608.067139 1609.661133 1612.994385 1613.108154 1631.202637 C 1615.976807 1646.356934 1635.220215 1662.328857 1652.442139 1662.108154 C 1684.667725 1661.695068 1717.999023 1598.424316 1717.999023 1598.424316 C 1717.999023 1598.424316 1713.392334 1645.078613 1726.427734 1663.981201 C 1737.050537 1679.385742 1776.063477 1693.013428 1776.063477 1693.013428 L 1776.063477 1723.918701 C 1776.063477 1723.918701 1741.970703 1709.541748 1729.237305 1698.632568 C 1717.23999 1688.354248 1703.014404 1662.108154 1703.014404 1662.108154 C 1703.014404 1662.108154 1684.407959 1682.966797 1660.87085 1688.330811 C 1641.08667 1692.8396 1661.371582 1742.36084 1683.347412 1761.379639 C 1701.00708 1776.663086 1720.60791 1776.899414 1738.602539 1771.681641 C 1762.276611 1764.81665 1777 1740.776123 1777 1740.776123 Z"/>
        <path id="Path-copy" fill="#000000" fill-rule="evenodd" stroke="none" d="M 1795 1740.776123 L 1795 1775.427734 C 1795 1775.427734 1834.796143 1795.247314 1853.064453 1837.238281 C 1868.987793 1873.839111 1795 1894.209473 1795 1894.209473 L 1795 1944.759277 C 1795 1944.759277 1814.031738 1959.944336 1812.793945 1983.336182 C 1811.549316 2006.86084 1795 2008.212891 1795 2008.212891 L 1795 2023.091309 C 1795 2023.091309 1808.403809 2014.442139 1813.730469 2008.622314 C 1819.986572 2001.787354 1819.390625 1978.789063 1828.714844 1985.209229 C 1838.031738 1991.624512 1854.831787 1990.494385 1858.683838 2001.130127 C 1864.309814 2016.664551 1851.558105 2035.26001 1839.953125 2047.02002 C 1828.522217 2058.603516 1795 2066.067383 1795 2066.067383 L 1795 2118.195801 C 1795 2118.195801 1797.587891 2105.47168 1806.238281 2094.782715 C 1811.187744 2088.666748 1824.821045 2084.781006 1833.397461 2078.861816 C 1846.262207 2069.983154 1853.101563 2057.359131 1857.747314 2067.623535 C 1860.418213 2073.525146 1861.787842 2079.238525 1866.176025 2084.480957 C 1872.235596 2091.720459 1883.969971 2097.592285 1883.969971 2097.592285 C 1883.969971 2097.592285 1868.225586 2068.764404 1868.985596 2051.702637 C 1869.560791 2038.785889 1875.253906 2024.066162 1877.414307 2017.051025 C 1881.869873 2002.583252 1884.164307 2019.60791 1893.335205 2028.289551 C 1907.679443 2041.868408 1927.814453 2047.19751 1942.034424 2049.82959 C 1960.215332 2053.19458 1998.524414 2044.087402 2045.98877 1995.510986 C 2063.057617 1978.042236 2071.850342 1953.778076 2088.132324 1935.573486 C 2094.026611 1928.983398 2106 1918 2106 1918 C 2106 1918 2097.824219 1920.765625 2087 1918 C 2078.143799 1915.737305 2068.750977 1908.288574 2065 1905 C 2047.741455 1889.868408 2066.851074 1922.301514 2063 1933 C 2056.442871 1951.216064 2038.443115 1981.102783 2023 1994 C 2001.401367 2012.038086 1982.29126 2030.307129 1946.717041 2030.162598 C 1932.999023 2030.106689 1913.017822 2017.392822 1901.763916 2005.812744 C 1894.26123 1998.092773 1886.470459 1991.55542 1892.398682 1989.891846 C 1899.033447 1988.030029 1914.672607 1980.254395 1924.240479 1971.161377 C 1935.934326 1960.047852 1941.345459 1948.583496 1944.843994 1963.669189 C 1949.387451 1983.26123 1974.155762 1993.628662 1989.797363 1996.44751 C 2001.620361 1998.578369 2011.337402 1982.399658 2011.337402 1982.399658 C 2011.337402 1982.399658 1976.739258 1975.50293 1961.701416 1948.684814 C 1951.972656 1931.334717 1957.018799 1903.731689 1957.018799 1903.731689 C 1957.018799 1903.731689 1950.68335 1902.123535 1947.653564 1900.922119 C 1945.058105 1899.892578 1940.161377 1897.176025 1940.161377 1897.176025 C 1940.161377 1897.176025 1929.991455 1936.251221 1916.748291 1948.684814 C 1898.803467 1965.532715 1876.236816 1978.318848 1851.191406 1968.351807 C 1832.125244 1960.764404 1810.03418 1943.120117 1809.984375 1915.906494 C 1809.970459 1908.289307 1834.977051 1907.230225 1845.572266 1898.112549 C 1856.207275 1888.960693 1866.435303 1872.799072 1870.858643 1863.460938 C 1873.137695 1858.649414 1879.446777 1860.278809 1885.843018 1861.587891 C 1894.676025 1863.395752 1904.207275 1866.648926 1908.31958 1870.016602 C 1926.034424 1884.524658 1943.098877 1895.640137 1966.384033 1900.922119 C 1977.648438 1903.477051 1995.893799 1901.217041 2003.845215 1901.858643 C 2009.19165 1902.290039 2019.23584 1915.465332 2025.385254 1919.652588 C 2033.21167 1924.981689 2044.115723 1924.335205 2044.115723 1924.335205 C 2044.115723 1924.335205 2024.317383 1910.654541 2025.385254 1901.858643 C 2027.700928 1882.784668 2050.188721 1869.041504 2052.544434 1856.905273 C 2054.824707 1845.158447 2061.531982 1866.513916 2073.147949 1878.445313 C 2086.78418 1892.451904 2088.805176 1894.717529 2102.180176 1898.112549 C 2111.681396 1900.52417 2118.766357 1902.581055 2134.95874 1899.049072 C 2136.601074 1898.690674 2138.104004 1897.336182 2133.085693 1894.366455 C 2115.292969 1883.83667 2070.470459 1859.112305 2090.005371 1853.15918 C 2112.174805 1846.40332 2122.529297 1838.790771 2136.831787 1826.936523 C 2140.966797 1823.509277 2142.785645 1818.22998 2138.704834 1816.634766 C 2135.933105 1815.55127 2131.99292 1816.240479 2131.99292 1816.240479 C 2131.99292 1816.240479 2127.176025 1817.93457 2124.656982 1818.507813 C 2119.071777 1819.778564 2113.91626 1819.251709 2113.91626 1819.251709 C 2113.91626 1819.251709 2106.058838 1821.07959 2103.116699 1823.19043 C 2087.876465 1834.125 2079.87793 1832.645996 2067.528809 1833.492188 C 2054.574219 1834.380127 2050.797607 1792.664307 2045.98877 1804.459961 C 2037.723389 1824.733154 2042.441895 1841.058594 2027.258301 1857.841797 C 2016.841309 1869.356445 2001.503174 1884.719971 1979.495361 1883.12793 C 1963.087646 1881.941162 1911.252441 1857.749023 1927.050049 1853.15918 C 1947.277588 1847.282471 1954.26709 1836.071777 1966.384033 1820.380859 C 1976.898926 1806.764648 1984.851074 1783.717529 1986.987793 1772.618164 C 1988.884277 1762.765625 1994.498291 1771.703125 2020.702637 1766.0625 C 2034.002441 1763.199463 2046.013672 1753.55249 2046.925293 1758.570068 C 2050.24292 1776.834717 2046.507324 1791.179443 2082.513184 1804.459961 C 2100.086426 1810.94165 2125.460449 1817.704346 2138.704834 1804.459961 C 2141.133057 1802.031738 2141.943604 1795.298828 2138.704834 1794.158203 C 2124.880859 1789.290039 2110.949219 1799.800781 2085.322754 1781.983398 C 2067.521729 1769.606689 2063.093018 1764.758301 2062.846191 1751.077881 C 2062.694336 1742.655273 2072.819824 1728.992188 2080.640137 1716.426514 C 2084.177246 1710.743164 2083.647705 1704.628662 2085.322754 1699.569092 C 2087.066162 1694.302979 2095.624512 1695.822998 2095.624512 1695.822998 C 2095.624512 1695.822998 2088.302002 1690.552979 2084.38623 1688.330811 C 2078.071289 1684.746826 2064.719238 1678.965576 2064.719238 1678.965576 C 2064.719238 1678.965576 2067.201172 1684.95166 2065.655762 1690.203857 C 2060.762207 1706.835449 2044.124023 1741.623535 2015.083496 1742.64917 C 1954.036377 1744.80542 1940.161377 1708.934326 1940.161377 1708.934326 C 1940.161377 1708.934326 1937.90332 1723.356445 1936.415283 1728.601318 C 1935.068359 1733.349854 1932.669189 1741.712646 1932.669189 1741.712646 C 1932.669189 1741.712646 1934.076172 1739.66748 1937.351807 1741.712646 C 1940.760986 1743.841553 1945.206543 1750.11792 1950.463135 1752.950928 C 1960.213867 1758.206299 1971.274414 1761.701172 1972.939697 1765.125977 C 1977.44751 1774.395996 1969.578125 1795.711182 1945.780518 1820.380859 C 1931.181885 1835.514404 1914.277588 1846.71582 1885.843018 1840.047852 C 1871.442383 1836.671143 1853.582764 1817.180664 1847.445313 1804.459961 C 1838.643799 1786.216797 1870.061279 1807.681641 1910.192627 1769.808594 C 1928.795654 1752.252197 1932.788818 1736.951904 1937.351807 1697.696045 C 1939.752441 1677.043213 1964.239258 1678.870605 1984.177979 1644.314209 C 1989.59375 1634.927979 1995.918945 1617.303711 2005.718262 1619.964355 C 2014.233398 1622.276611 2017.636475 1645.619629 2065.655762 1672.409912 C 2077.982666 1679.287109 2091.722168 1684.880371 2102.54248 1693.210205 C 2115.226563 1702.974854 2125.593506 1719.236084 2125.593506 1719.236084 C 2125.593506 1719.236084 2123.605225 1686.494141 2111.54541 1678.965576 C 2087.041016 1663.668213 2042.356934 1645.693359 2039.433105 1625.583496 C 2037.869873 1614.831299 2070.895996 1615.472656 2083.449707 1584.376465 C 2089.770264 1568.720703 2086.259277 1533.804199 2086.259277 1533.804199 C 2086.259277 1533.804199 2075.390137 1577.444336 2054.41748 1589.995605 C 2045.577881 1595.285889 2020.80542 1610.008057 2020.702637 1598.424316 C 2020.568848 1583.362793 2020.702637 1543.169434 2020.702637 1543.169434 C 2020.702637 1543.169434 2004.185547 1599.993408 1982.304932 1604.043457 C 1953.863525 1609.308105 1934.031494 1575.304688 1911.12915 1559.090332 C 1901.646973 1552.377197 1914.875244 1611.535645 1914.875244 1611.535645 C 1914.875244 1611.535645 1926.546143 1579.123779 1929.859619 1590.932129 C 1934.667725 1608.067139 1962.338867 1612.994385 1958.891846 1631.202637 C 1956.023193 1646.356934 1936.779785 1662.328857 1919.557861 1662.108154 C 1887.332275 1661.695068 1854.000977 1598.424316 1854.000977 1598.424316 C 1854.000977 1598.424316 1858.607666 1645.078613 1845.572266 1663.981201 C 1834.949463 1679.385742 1795.936523 1693.013428 1795.936523 1693.013428 L 1795.936523 1723.918701 C 1795.936523 1723.918701 1830.029297 1709.541748 1842.762695 1698.632568 C 1854.76001 1688.354248 1868.985596 1662.108154 1868.985596 1662.108154 C 1868.985596 1662.108154 1887.592041 1682.966797 1911.12915 1688.330811 C 1930.91333 1692.8396 1910.628418 1742.36084 1888.652588 1761.379639 C 1870.99292 1776.663086 1851.39209 1776.899414 1833.397461 1771.681641 C 1809.723389 1764.81665 1795 1740.776123 1795 1740.776123 Z"/>
        <path id="path35" fill="#000000" fill-rule="evenodd" stroke="none" d="M 1547 925 C 1547 925 1566.727295 934.877441 1576 940 C 1585.468018 945.230469 1603 956 1603 956 C 1603 956 1640.242432 945.67749 1675 940 C 1715.084229 933.452393 1773 935 1773 935 L 1773 881 C 1773 881 1721.246582 875.536377 1652 891 C 1598.750977 902.891113 1547 925 1547 925 Z"/>
        <path id="path36" fill="#000000" fill-rule="evenodd" stroke="none" d="M 1773 1610 L 1771.431641 1584.553223 C 1771.431641 1584.553223 1768.051758 1561.645752 1748 1541 C 1733.892578 1526.474609 1709.674561 1490.97168 1632 1476 C 1532.160645 1456.756104 1418.523438 1412.459961 1380 1337 C 1357.648438 1293.217529 1343.987305 1220.122803 1362 1159 C 1381.781738 1091.874512 1414 1043 1414 1043 C 1414 1043 1407.801758 1036.634033 1390 1021 C 1380.853271 1012.967041 1367 1005 1367 1005 C 1367 1005 1309.622681 1091.505371 1298 1168 C 1280.833984 1280.977783 1318.008789 1365.901611 1335 1388 C 1336.661377 1390.160645 1208.694824 1456.31665 1193 1637 C 1180.647339 1779.20752 1237 1900 1237 1900 C 1237 1900 1273 1855 1273 1855 C 1273 1855 1230.938477 1764.350586 1252 1624 C 1258.539795 1580.419678 1293.144043 1501.609375 1341 1467 C 1362.67041 1451.327881 1393.97876 1442.221924 1417 1457 C 1475.093506 1494.292236 1566.750977 1513.093018 1639 1529 C 1668.51001 1535.497314 1695.390625 1545.911133 1717 1553 C 1773.212891 1571.44043 1773 1610 1773 1610 Z"/>
        <path id="path37" fill="#000000" fill-rule="evenodd" stroke="none" d="M 1347 1485 C 1347 1485 1381.596924 1551.485352 1376 1600 C 1370.647217 1646.396973 1365.628662 1689.55835 1349 1733 C 1310.199707 1834.364258 1242 1912 1242 1912 C 1242 1912 1281.41626 2013.572266 1373 2112 C 1427.818359 2170.915039 1495 2221 1495 2221 C 1495 2221 1498.240967 2212.116211 1501 2208 C 1503.496826 2204.274902 1510 2198 1510 2198 C 1510 2198 1424.844971 2111.773193 1384 2054 C 1368.876953 2032.609375 1326.015869 1969.42749 1323 1918 C 1321.697144 1895.784668 1339.469238 1859.775391 1342 1855 C 1350.963379 1838.08667 1347.794678 1881.389893 1354 1909 C 1364.124268 1954.04834 1368.849609 1966.86792 1381 1994 C 1400.790039 2038.19165 1425.449951 2084.641846 1455 2123 C 1475.282471 2149.328125 1518 2191 1518 2191 C 1518 2191 1530.660645 2183.265869 1540 2180 C 1549.500488 2176.677734 1567 2174 1567 2174 C 1567 2174 1567.697754 2173.984863 1549 2152 C 1523.179199 2121.640137 1474.022949 2068.330811 1458 2036 C 1426.478271 1972.395752 1393.166016 1906.39502 1400 1824 C 1406.220215 1749.006104 1428.668457 1679.812256 1437 1609 C 1444.473633 1545.47876 1416 1468 1416 1468 C 1416 1468 1410.161865 1460.193848 1380 1468 C 1362.619141 1472.498291 1347 1485 1347 1485 Z"/>
        <path id="path38" fill="#000000" fill-rule="evenodd" stroke="none" d="M 1581 2489 C 1581 2489 1576.779785 2451.728516 1554 2403 C 1543.428711 2380.386719 1523.537109 2367.148193 1512 2341 C 1494.10376 2300.439453 1486.452881 2241.345215 1512 2208 C 1527.839844 2187.325195 1578.224609 2178.739502 1613 2181 C 1654.016357 2183.66626 1706.112549 2193.28833 1731 2226 C 1746.045654 2245.775635 1745.362305 2273.989502 1741 2299 C 1736.126465 2326.940918 1722.280518 2361.893066 1694 2378 C 1686.463623 2382.29248 1662 2382 1662 2382 C 1662 2382 1696.563721 2328.574219 1700 2299 C 1702.100098 2280.925293 1703.19458 2261.930664 1691 2248 C 1673.345215 2227.831787 1630.341309 2228.002686 1602 2230 C 1582.780518 2231.354492 1560.057617 2233.011963 1551 2244 C 1529.284424 2270.34375 1536.819824 2311.041016 1549 2341 C 1557.65918 2362.298584 1572.838379 2372.281006 1577 2399 C 1579.576172 2415.540527 1581 2489 1581 2489 Z"/>
        <path id="path39" fill="#000000" fill-rule="evenodd" stroke="none" d="M 1247 805 C 1247 805 1313.874023 959.01001 1378 1004 C 1406.042969 1023.674561 1432.466553 1052.547607 1473 1083 C 1483.133545 1090.613037 1495.315918 1092.625732 1506 1102 C 1506.616211 1102.540771 1506.627197 1107.823486 1503 1114 C 1496.263916 1125.470947 1481.348877 1144.598877 1475 1162 C 1466.303223 1185.835693 1459.884766 1211.715576 1462 1237 C 1464.091797 1262.003662 1472.540527 1287.494385 1487 1308 C 1501.340332 1328.33667 1522.447266 1344.483398 1545 1355 C 1565.618408 1364.614502 1589.29834 1369.47876 1612 1368 C 1634.089111 1366.561035 1657.355469 1356.843018 1675 1347 C 1694.11499 1336.33667 1704 1321 1704 1321 C 1704 1321 1710 1269 1710 1269 C 1710 1269 1695.804688 1298.910645 1668 1318 C 1653.02832 1328.278809 1631.532227 1336.771484 1612 1339 C 1596.301025 1340.79126 1574.521973 1335.726563 1557 1326 C 1534.699219 1313.62085 1517.733887 1294.953369 1512 1287 C 1501.488525 1272.419678 1496.763184 1253.445557 1496 1235 C 1495.138916 1214.199951 1499.128906 1195.183105 1502 1185 C 1510.527344 1154.753662 1540.487061 1128.895508 1545 1130 C 1555.365723 1132.537109 1561.88501 1137.413574 1573 1144 C 1573.604492 1144.358154 1578.688721 1149.411865 1573 1151 C 1568.81958 1152.166992 1553.287354 1163.002441 1543 1182 C 1528.793945 1208.234863 1523.491699 1247.998047 1562 1281 C 1601.621094 1314.955566 1645.207275 1293.749756 1669 1271 C 1676.580811 1263.751709 1683.339111 1255.654297 1687 1249 C 1691.659668 1240.530762 1690.184082 1231.918457 1697 1238 C 1719.349121 1257.941162 1718 1269 1718 1269 C 1718 1269 1703.098877 1346.884033 1713 1380 C 1723.94165 1416.595947 1751.615723 1453.636475 1766 1473 C 1773.155029 1482.631836 1777 1489 1777 1489 C 1777 1489 1777 1424 1777 1424 C 1777 1424 1774.406494 1425.573242 1772 1420 C 1767.530762 1409.649414 1761.127197 1389.792236 1755 1372 C 1748.715332 1353.751709 1744.429443 1333.730225 1744 1329 C 1742.877197 1316.630615 1758.229004 1283.324951 1762 1282 C 1766.717529 1280.342529 1777 1282 1777 1282 C 1777 1282 1777 1261 1777 1261 C 1777 1261 1774.462402 1260.557861 1773 1260 C 1709.781738 1235.885986 1691.673584 1163.471924 1624 1123 C 1438.051514 1011.794189 1455.462646 1012.509277 1395 950 C 1392.416748 947.329346 1535.282471 999.116455 1642 1061 C 1675.894287 1080.654541 1732.503174 1145.140381 1758 1179 C 1768.861572 1193.424072 1777 1199 1777 1199 C 1777 1199 1777 1141 1777 1141 C 1777 1141 1736.500732 1033.506348 1558 954 C 1261.117065 821.764893 1247 805 1247 805 Z"/>
        <path id="path40" fill="#000000" fill-rule="evenodd" stroke="none" d="M 2025.230103 925 C 2025.230103 925 2005.502808 934.877441 1996.230103 940 C 1986.762085 945.230469 1969.230103 956 1969.230103 956 C 1969.230103 956 1931.987671 945.67749 1897.230103 940 C 1857.145874 933.452393 1799.230103 935 1799.230103 935 L 1799.230103 881 C 1799.230103 881 1850.983521 875.536377 1920.230103 891 C 1973.479126 902.891113 2025.230103 925 2025.230103 925 Z"/>
        <path id="path41" fill="#000000" fill-rule="evenodd" stroke="none" d="M 1799.230103 1610 L 1800.798462 1584.553223 C 1800.798462 1584.553223 1804.178345 1561.645752 1824.230103 1541 C 1838.337524 1526.474609 1862.555542 1490.97168 1940.230103 1476 C 2040.069458 1456.756104 2153.706543 1412.459961 2192.22998 1337 C 2214.581543 1293.217529 2228.242676 1220.122803 2210.22998 1159 C 2190.448242 1091.874512 2158.22998 1043 2158.22998 1043 C 2158.22998 1043 2164.428223 1036.634033 2182.22998 1021 C 2191.376709 1012.967041 2205.22998 1005 2205.22998 1005 C 2205.22998 1005 2262.607422 1091.505371 2274.22998 1168 C 2291.395996 1280.977783 2254.221191 1365.901611 2237.22998 1388 C 2235.568604 1390.160645 2363.535156 1456.31665 2379.22998 1637 C 2391.582764 1779.20752 2335.22998 1900 2335.22998 1900 C 2335.22998 1900 2299.22998 1855 2299.22998 1855 C 2299.22998 1855 2341.291504 1764.350586 2320.22998 1624 C 2313.690186 1580.419678 2279.085938 1501.609375 2231.22998 1467 C 2209.55957 1451.327881 2178.251221 1442.221924 2155.22998 1457 C 2097.136475 1494.292236 2005.479126 1513.093018 1933.230103 1529 C 1903.720093 1535.497314 1876.839478 1545.911133 1855.230103 1553 C 1799.017212 1571.44043 1799.230103 1610 1799.230103 1610 Z"/>
        <path id="path42" fill="#000000" fill-rule="evenodd" stroke="none" d="M 2225.22998 1485 C 2225.22998 1485 2190.633057 1551.485352 2196.22998 1600 C 2201.582764 1646.396973 2206.601318 1689.55835 2223.22998 1733 C 2262.030273 1834.364258 2330.22998 1912 2330.22998 1912 C 2330.22998 1912 2290.813721 2013.572266 2199.22998 2112 C 2144.411621 2170.915039 2077.22998 2221 2077.22998 2221 C 2077.22998 2221 2073.989014 2212.116211 2071.22998 2208 C 2068.733154 2204.274902 2062.22998 2198 2062.22998 2198 C 2062.22998 2198 2147.38501 2111.773193 2188.22998 2054 C 2203.353027 2032.609375 2246.214111 1969.42749 2249.22998 1918 C 2250.532959 1895.784668 2232.760742 1859.775391 2230.22998 1855 C 2221.266602 1838.08667 2224.435303 1881.389893 2218.22998 1909 C 2208.105713 1954.04834 2203.380371 1966.86792 2191.22998 1994 C 2171.439941 2038.19165 2146.780029 2084.641846 2117.22998 2123 C 2096.94751 2149.328125 2054.22998 2191 2054.22998 2191 C 2054.22998 2191 2041.569458 2183.265869 2032.230103 2180 C 2022.729614 2176.677734 2005.230103 2174 2005.230103 2174 C 2005.230103 2174 2004.532349 2173.984863 2023.230103 2152 C 2049.050781 2121.640137 2098.207031 2068.330811 2114.22998 2036 C 2145.751709 1972.395752 2179.063965 1906.39502 2172.22998 1824 C 2166.009766 1749.006104 2143.561523 1679.812256 2135.22998 1609 C 2127.756348 1545.47876 2156.22998 1468 2156.22998 1468 C 2156.22998 1468 2162.068115 1460.193848 2192.22998 1468 C 2209.61084 1472.498291 2225.22998 1485 2225.22998 1485 Z"/>
        <path id="path43" fill="#000000" fill-rule="evenodd" stroke="none" d="M 1991.230103 2489 C 1991.230103 2489 1995.450317 2451.728516 2018.230103 2403 C 2028.801392 2380.386719 2048.692871 2367.148193 2060.22998 2341 C 2078.126221 2300.439453 2085.7771 2241.345215 2060.22998 2208 C 2044.390259 2187.325195 1994.005493 2178.739502 1959.230103 2181 C 1918.213745 2183.66626 1866.117554 2193.28833 1841.230103 2226 C 1826.184448 2245.775635 1826.867798 2273.989502 1831.230103 2299 C 1836.103638 2326.940918 1849.949585 2361.893066 1878.230103 2378 C 1885.766479 2382.29248 1910.230103 2382 1910.230103 2382 C 1910.230103 2382 1875.666382 2328.574219 1872.230103 2299 C 1870.130005 2280.925293 1869.035522 2261.930664 1881.230103 2248 C 1898.884888 2227.831787 1941.888794 2228.002686 1970.230103 2230 C 1989.449585 2231.354492 2012.172485 2233.011963 2021.230103 2244 C 2042.945679 2270.34375 2035.410278 2311.041016 2023.230103 2341 C 2014.570923 2362.298584 1999.391724 2372.281006 1995.230103 2399 C 1992.653931 2415.540527 1991.230103 2489 1991.230103 2489 Z"/>
        <path id="path44" fill="#000000" fill-rule="evenodd" stroke="none" d="M 2325.22998 805 C 2325.22998 805 2258.355957 959.01001 2194.22998 1004 C 2166.187012 1023.674561 2139.763428 1052.547607 2099.22998 1083 C 2089.096436 1090.613037 2076.914063 1092.625732 2066.22998 1102 C 2065.61377 1102.540771 2065.602783 1107.823486 2069.22998 1114 C 2075.966064 1125.470947 2090.881104 1144.598877 2097.22998 1162 C 2105.926758 1185.835693 2112.345215 1211.715576 2110.22998 1237 C 2108.138184 1262.003662 2099.689453 1287.494385 2085.22998 1308 C 2070.889648 1328.33667 2049.782715 1344.483398 2027.230103 1355 C 2006.611694 1364.614502 1982.931763 1369.47876 1960.230103 1368 C 1938.140991 1366.561035 1914.874634 1356.843018 1897.230103 1347 C 1878.115112 1336.33667 1868.230103 1321 1868.230103 1321 C 1868.230103 1321 1862.230103 1269 1862.230103 1269 C 1862.230103 1269 1876.425415 1298.910645 1904.230103 1318 C 1919.201782 1328.278809 1940.697876 1336.771484 1960.230103 1339 C 1975.929077 1340.79126 1997.70813 1335.726563 2015.230103 1326 C 2037.530884 1313.62085 2054.496094 1294.953369 2060.22998 1287 C 2070.741455 1272.419678 2075.466797 1253.445557 2076.22998 1235 C 2077.091064 1214.199951 2073.101074 1195.183105 2070.22998 1185 C 2061.702637 1154.753662 2031.743042 1128.895508 2027.230103 1130 C 2016.86438 1132.537109 2010.345093 1137.413574 1999.230103 1144 C 1998.62561 1144.358154 1993.541382 1149.411865 1999.230103 1151 C 2003.410522 1152.166992 2018.942749 1163.002441 2029.230103 1182 C 2043.436157 1208.234863 2048.738281 1247.998047 2010.230103 1281 C 1970.609009 1314.955566 1927.022827 1293.749756 1903.230103 1271 C 1895.649292 1263.751709 1888.890991 1255.654297 1885.230103 1249 C 1880.570435 1240.530762 1882.046021 1231.918457 1875.230103 1238 C 1852.880981 1257.941162 1854.230103 1269 1854.230103 1269 C 1854.230103 1269 1869.131226 1346.884033 1859.230103 1380 C 1848.288452 1416.595947 1820.61438 1453.636475 1806.230103 1473 C 1799.075073 1482.631836 1795.230103 1489 1795.230103 1489 C 1795.230103 1489 1795.230103 1424 1795.230103 1424 C 1795.230103 1424 1797.823608 1425.573242 1800.230103 1420 C 1804.699341 1409.649414 1811.102905 1389.792236 1817.230103 1372 C 1823.514771 1353.751709 1827.800659 1333.730225 1828.230103 1329 C 1829.352905 1316.630615 1814.001099 1283.324951 1810.230103 1282 C 1805.512573 1280.342529 1795.230103 1282 1795.230103 1282 C 1795.230103 1282 1795.230103 1261 1795.230103 1261 C 1795.230103 1261 1797.7677 1260.557861 1799.230103 1260 C 1862.448364 1235.885986 1880.556519 1163.471924 1948.230103 1123 C 2134.178467 1011.794189 2116.767334 1012.509277 2177.22998 950 C 2179.813232 947.329346 2036.947632 999.116455 1930.230103 1061 C 1896.335815 1080.654541 1839.726929 1145.140381 1814.230103 1179 C 1803.36853 1193.424072 1795.230103 1199 1795.230103 1199 C 1795.230103 1199 1795.230103 1141 1795.230103 1141 C 1795.230103 1141 1835.72937 1033.506348 2014.230103 954 C 2311.113037 821.764893 2325.22998 805 2325.22998 805 Z"/>
        <path id="path45" fill="#000000" fill-rule="evenodd" stroke="none" d="M 1313 1005 C 1313 1005 978.766846 1266.006836 1072 1714 C 1154.095947 2108.478027 1483 2247 1483 2247 C 1483 2247 1482.500732 2263.173828 1482 2275 C 1480.549805 2309.25415 1501 2357 1501 2357 C 1501 2357 1491.537842 2339.073486 1467 2320 C 1445.23999 2303.085938 1408.470947 2288.522217 1389 2278 C 1343.835449 2253.592773 1293 2221 1293 2221 L 1326 2174 C 1326 2174 1211.129395 2093.961914 1129 1954 C 1022.752319 1772.936523 1024 1597 1024 1597 L 998 1596 C 998 1596 994.523315 1759.82666 1086 1931 C 1170.423218 2088.974609 1273 2164 1273 2164 L 1254 2186 C 1254 2186 981.350708 1986.837402 967 1584 C 952.403809 1174.271729 1262 933 1262 933 L 1280 958 C 1280 958 1132.943115 1060.211426 1050 1274 C 984.466064 1442.915771 997 1565 997 1565 L 1023 1565 C 1023 1565 1017.619751 1417.477295 1082 1268 C 1160.937256 1084.724365 1293 980 1293 980 L 1313 1005 Z"/>
        <path id="Path-copy-7" fill="#000000" fill-rule="evenodd" stroke="none" d="M 2259.499756 1005 C 2259.499756 1005 2593.73291 1266.006836 2500.499756 1714 C 2418.403809 2108.478027 2089.499756 2247 2089.499756 2247 C 2089.499756 2247 2089.999023 2263.173828 2090.499756 2275 C 2091.949951 2309.25415 2071.499756 2357 2071.499756 2357 C 2071.499756 2357 2080.961914 2339.073486 2105.499756 2320 C 2127.259766 2303.085938 2164.028809 2288.522217 2183.499756 2278 C 2228.664307 2253.592773 2279.499756 2221 2279.499756 2221 L 2246.499756 2174 C 2246.499756 2174 2361.370361 2093.961914 2443.499756 1954 C 2549.747314 1772.936523 2548.499756 1597 2548.499756 1597 L 2574.499756 1596 C 2574.499756 1596 2577.976318 1759.82666 2486.499756 1931 C 2402.076416 2088.974609 2299.499756 2164 2299.499756 2164 L 2318.499756 2186 C 2318.499756 2186 2591.148926 1986.837402 2605.499756 1584 C 2620.095947 1174.271729 2310.499756 933 2310.499756 933 L 2292.499756 958 C 2292.499756 958 2439.556641 1060.211426 2522.499756 1274 C 2588.033691 1442.915771 2575.499756 1565 2575.499756 1565 L 2549.499756 1565 C 2549.499756 1565 2554.879883 1417.477295 2490.499756 1268 C 2411.5625 1084.724365 2279.499756 980 2279.499756 980 L 2259.499756 1005 Z"/>
        <defs>
            <path id="path46" d="M 3001 1562 C 3001 893.183105 2458.816895 351 1790 351 C 1121.183105 351 579 893.183105 579 1562 C 579 2230.816895 1121.183105 2773 1790 2773 C 2458.816895 2773 3001 2230.816895 3001 1562 Z"/>
        </defs>
        <text id="text1" xml:space="preserve"><textPath xlink:href="#path46" startOffset="17.163677"><tspan font-family="Noto Sans Old Persian" font-size="156" fill="#000000" xml:space="preserve">𐎺𐎡𐎹𐎿𐎫𐎠𐎺𐎡𐎹𐎿𐎫𐎠𐎺𐎡𐎹𐎿𐎫𐎠𐎺𐎡𐎹𐎿𐎫𐎠𐎺𐎡𐎹𐎿𐎫𐎠𐎺𐎡𐎹𐎿𐎫𐎠𐎺𐎡𐎹𐎿𐎫𐎠</tspan></textPath></text>
    </g>
</svg>
